<svg version="1.1" preserveAspectRatio="none" xmlns="http://www.w3.org/2000/svg" width="500" height="500" viewBox="0 0 500 500"><rect width="100%" height="100%" fill="#FFFFFF" fill-opacity="1"/><svg viewBox="-23.0711 181.8 527.4277 100" width="333" height="63.13661569159148" x="83.5px" y="218.4317px" xmlns="http://www.w3.org/2000/svg" xmlns:xlink="http://www.w3.org/1999/xlink" preserveAspectRatio="none"><defs></defs><style>.background {fill:#FFFFFF;fill-opacity:1;}.companyName {fill:#0C0C0C;fill-opacity:1;}.icon3 {fill:#6F5CF3;fill-opacity:1;}.icon3-str {stroke:#6F5CF3;stroke-opacity:1;}.shape {fill:#F55649;fill-opacity:1;}.text-str {stroke:#0C0C0C;stroke-opacity:1;}</style><g opacity="1" transform="rotate(0 79.9288 181.8)">
<svg width="424.4278" height="100" x="79.9288" y="181.8" version="1.1" preserveAspectRatio="none" viewBox="0 0 424.4278 100">
  <defs><rect x="0" y="0" width="424.4278" height="100" rx="0px" ry="0px" id="id-B7crM0kCi1698728192912"></rect></defs><use class="companyName text-str" style="stroke-width:0;" xlink:href="#id-B7crM0kCi1698728192912"></use>
</svg>
</g><g opacity="1" transform="rotate(0 109.9288 211.8)">
<svg width="364.4278" height="40" x="109.9288" y="211.8" version="1.1" preserveAspectRatio="none" viewBox="0.2539 -32.4023 298.94530000000003 32.8125">
  <g transform="matrix(1 0 0 1 0 0)" class="background"><path id="id-D6z1nYkh11" d="M13.63 0L0.25-30.53L7.11-30.53L16.70-7.25L26.29-30.53L33.14-30.53L19.77 0L13.63 0Z M40.06-26.19L40.06-26.19Q39.20-26.19 38.51-26.44Q37.81-26.68 37.32-27.10Q36.84-27.52 36.57-28.08Q36.31-28.63 36.31-29.26L36.31-29.26Q36.31-29.90 36.57-30.46Q36.84-31.02 37.32-31.43Q37.81-31.84 38.51-32.08Q39.20-32.32 40.06-32.32L40.06-32.32Q40.94-32.32 41.63-32.08Q42.32-31.84 42.81-31.43Q43.30-31.02 43.56-30.46Q43.83-29.90 43.83-29.26L43.83-29.26Q43.83-28.63 43.56-28.08Q43.30-27.52 42.81-27.10Q42.32-26.68 41.63-26.44Q40.94-26.19 40.06-26.19ZM37.17 0L37.17-23.05L42.95-23.05L42.95 0L37.17 0Z M50.20 0L50.20-32.40L55.98-32.40L55.98-20.88Q56.74-21.41 57.77-21.88Q58.81-22.34 60-22.70Q61.19-23.05 62.46-23.25Q63.73-23.46 65-23.46L65-23.46Q67.93-23.46 70.38-22.60Q72.83-21.74 74.59-20.18Q76.35-18.61 77.33-16.44Q78.32-14.26 78.32-11.62L78.32-11.62Q78.32-8.87 77.29-6.65Q76.25-4.43 74.42-2.86Q72.60-1.29 70.09-0.44Q67.58 0.41 64.65 0.41L64.65 0.41Q63.40 0.41 62.18 0.25Q60.96 0.10 59.83-0.18Q58.71-0.45 57.72-0.83Q56.74-1.21 55.98-1.66L55.98-1.66L55.98 0L50.20 0ZM55.98-15.23L55.98-7.25Q56.86-6.54 57.83-6.05Q58.81-5.57 59.82-5.25Q60.84-4.94 61.88-4.79Q62.91-4.65 63.89-4.65L63.89-4.65Q65.88-4.65 67.43-5.19Q68.98-5.72 70.05-6.66Q71.11-7.60 71.68-8.87Q72.25-10.14 72.25-11.62L72.25-11.62Q72.25-13.01 71.69-14.24Q71.13-15.47 70.09-16.40Q69.04-17.32 67.57-17.86Q66.09-18.40 64.26-18.40L64.26-18.40Q63.09-18.40 61.91-18.17Q60.74-17.95 59.66-17.54Q58.57-17.13 57.63-16.54Q56.68-15.96 55.98-15.23L55.98-15.23Z M83.67 0L83.67-23.05L89.45-23.05L89.45-19.73Q91.37-21.15 93.50-22.19Q95.63-23.22 97.73-23.77L97.73-23.77L99.43-18.48Q96.09-18.14 93.56-16.98Q91.04-15.82 89.45-13.71L89.45-13.71L89.45 0L83.67 0Z M102.64-7.27L102.64-7.27Q102.64-8.93 103.36-10.29Q104.08-11.66 105.53-12.65Q106.97-13.63 109.13-14.17Q111.29-14.71 114.16-14.71L114.16-14.71Q116.29-14.71 118.64-14.39Q121.00-14.08 123.50-13.44L123.50-13.44Q123.40-14.53 122.83-15.46Q122.27-16.39 121.26-17.06Q120.25-17.73 118.84-18.11Q117.42-18.48 115.63-18.48L115.63-18.48Q114.65-18.48 113.48-18.36Q112.30-18.24 111.05-18.01Q109.80-17.77 108.58-17.42Q107.36-17.07 106.31-16.58L106.31-16.58L104.55-21.33Q105.86-21.80 107.35-22.19Q108.85-22.58 110.41-22.86Q111.97-23.14 113.54-23.30Q115.10-23.46 116.56-23.46L116.56-23.46Q123.03-23.46 126.17-20.16Q129.32-16.86 129.32-10.04L129.32-10.04L129.32 0L123.54 0L123.54-2.17Q122.64-1.64 121.57-1.17Q120.51-0.70 119.26-0.35Q118.01 0 116.57 0.21Q115.14 0.41 113.54 0.41L113.54 0.41Q110.84 0.41 108.80-0.18Q106.76-0.76 105.39-1.80Q104.02-2.83 103.33-4.23Q102.64-5.63 102.64-7.27ZM108.73-7.46L108.73-7.46Q108.73-6.89 109.02-6.38Q109.32-5.86 109.96-5.46Q110.61-5.06 111.61-4.81Q112.62-4.57 114.04-4.57L114.04-4.57Q115.57-4.57 116.99-4.84Q118.42-5.12 119.65-5.57Q120.88-6.02 121.88-6.60Q122.87-7.19 123.54-7.81L123.54-7.81L123.54-8.83Q122.21-9.20 120.91-9.45Q119.61-9.71 118.43-9.85Q117.25-10 116.20-10.06Q115.16-10.12 114.38-10.12L114.38-10.12Q112.75-10.12 111.68-9.90Q110.61-9.69 109.94-9.33Q109.28-8.96 109.00-8.48Q108.73-7.99 108.73-7.46Z M136.95 0L136.95-23.05L142.73-23.05L142.73-21.09Q145.04-22.40 147.14-22.93Q149.24-23.46 151.25-23.46L151.25-23.46Q153.89-23.46 156.13-22.69Q158.38-21.91 160.02-20.39Q161.66-18.87 162.59-16.59Q163.52-14.32 163.52-11.33L163.52-11.33L163.52 0L157.75 0L157.75-10.39Q157.75-12.29 157.22-13.78Q156.68-15.27 155.67-16.30Q154.67-17.32 153.23-17.86Q151.80-18.40 150.02-18.40L150.02-18.40Q149.08-18.40 148.10-18.20Q147.11-18.01 146.16-17.65Q145.21-17.29 144.34-16.75Q143.46-16.21 142.73-15.53L142.73-15.53L142.73 0L136.95 0Z M174.08 0L174.08-18.71L168.52-18.71L168.52-23.05L174.08-23.05L174.08-30.21L179.86-30.21L179.86-23.05L185.43-23.05L185.43-18.71L179.86-18.71L179.86 0L174.08 0Z M204.57 0L204.57-30.53L215.76-30.53Q220.66-30.53 224.28-29.47Q227.89-28.42 230.26-26.46Q232.64-24.49 233.80-21.69Q234.96-18.89 234.96-15.39L234.96-15.39Q234.96-12.07 233.81-9.25Q232.66-6.43 230.29-4.37Q227.93-2.30 224.32-1.14Q220.70 0.02 215.80 0.02L215.80 0.02L204.57 0ZM210.76-5.35L217.29-5.35Q220.06-5.35 222.15-6.06Q224.24-6.78 225.63-8.09Q227.03-9.39 227.73-11.25Q228.44-13.11 228.44-15.39L228.44-15.39Q228.44-17.64 227.73-19.44Q227.03-21.25 225.63-22.51Q224.24-23.77 222.15-24.45Q220.06-25.14 217.29-25.14L217.29-25.14L210.76-25.14L210.76-5.35Z M239.36-11.60L239.36-11.60Q239.36-13.95 240.31-16.08Q241.27-18.22 243.07-19.86Q244.86-21.50 247.47-22.48Q250.08-23.46 253.40-23.46L253.40-23.46Q256.70-23.46 259.35-22.47Q261.99-21.48 263.84-19.77Q265.68-18.05 266.67-15.72Q267.66-13.40 267.66-10.74L267.66-10.74Q267.66-10.41 267.65-10.03Q267.64-9.65 267.60-9.34L267.60-9.34L245.80-9.34Q246.17-8.30 247.00-7.44Q247.83-6.58 249.08-5.96Q250.33-5.33 251.97-4.99Q253.61-4.65 255.61-4.65L255.61-4.65Q257.60-4.65 259.57-5.07Q261.54-5.49 263.34-6.13L263.34-6.13L265.29-1.72Q264.16-1.19 263.00-0.79Q261.84-0.39 260.58-0.13Q259.32 0.14 257.94 0.27Q256.56 0.41 255.04 0.41L255.04 0.41Q251.15 0.41 248.22-0.53Q245.29-1.46 243.32-3.09Q241.35-4.71 240.35-6.89Q239.36-9.08 239.36-11.60ZM245.80-13.85L261.52-13.85Q261.21-14.80 260.56-15.63Q259.90-16.46 258.93-17.08Q257.95-17.70 256.66-18.05Q255.37-18.40 253.83-18.40L253.83-18.40Q252.19-18.40 250.84-18.03Q249.49-17.66 248.48-17.03Q247.46-16.41 246.79-15.59Q246.11-14.77 245.80-13.85L245.80-13.85Z M281.60 0L270.68-23.07L277.38-23.07L283.38-9.20L284.94-5.31L286.50-9.20L292.50-23.07L299.20-23.07L288.28 0L281.60 0Z"/></g>
</svg>
</g><g opacity="1" transform="rotate(0 -23.0711 181.8)">
<svg width="99.9999" height="100" x="-23.0711" y="181.8" version="1.1" preserveAspectRatio="none" viewBox="0 0 99.9999 100">
  <defs><rect x="0" y="0" width="99.9999" height="100" rx="0px" ry="0px" id="id-tBXipXk0b1698728192912"></rect></defs><use class="companyName text-str" style="stroke-width:0;" xlink:href="#id-tBXipXk0b1698728192912"></use>
</svg>
</g><g opacity="1" transform="rotate(0 -3.0711 204.3361)">
<svg width="59.9999" height="54.9279" x="-3.0711" y="204.3361" version="1.1" preserveAspectRatio="none" viewBox="9.787101745605469 13.128548622131348 80.43058776855469 73.63155364990234">
  <g transform="matrix(1 0 0 1 0 0)" class="icon3"><title>big data, brain storm. connected. connectivity. data point_1</title><path d="M88.11,77.75a4,4,0,0,0-1.55-.47l-6.08-10a7.11,7.11,0,0,0,.73-1.06,7.33,7.33,0,0,0-2.91-10,7.24,7.24,0,0,0-3.5-.9,7.34,7.34,0,0,0-6.44,3.81s0,0,0,0l.44-.95-5.54-2.6a13.44,13.44,0,0,0,1.34-5.25l19.71-.5a2.29,2.29,0,1,0,2.35-3.31l-7.8-26.27a4.05,4.05,0,1,0-6.12-1,3,3,0,0,0,.2.29L58.5,38.42a13.53,13.53,0,0,0-19.11,4.34L31.27,38a4.4,4.4,0,0,0-2.11-5,4.46,4.46,0,0,0-2.11-.53,4.39,4.39,0,0,0-3.36,7.22l-4.91,6.3a5.67,5.67,0,0,0-3.27-1h-.12a5.73,5.73,0,0,0-1.08,11.33l.08,13.11a2.26,2.26,0,0,0-.35.17,2.46,2.46,0,1,0,2.35-.09l-.08-13.12a5.74,5.74,0,0,0,4.93-5.79,5.61,5.61,0,0,0-1-3.15l5.08-6.54a4.35,4.35,0,0,0,1.75.38,4.4,4.4,0,0,0,3.27-1.47l8.16,4.8a13.57,13.57,0,0,0,1.18,12.65l-5.5,3.19L34,60.13a7.33,7.33,0,1,0-6.25,11.12,6.6,6.6,0,0,0,1.33-.14l3.12,8.22a2.86,2.86,0,0,0-.28.4,2.26,2.26,0,0,0-.22.63l-8.38,1.18a4.05,4.05,0,0,0-3.87-2.89h0a4.06,4.06,0,0,0,0,8.11h0a4.06,4.06,0,0,0,4-3.22l8.76-1.23a2.24,2.24,0,0,0,.64.54A2.3,2.3,0,0,0,36,82a2.72,2.72,0,0,0,.19-.47l10.8-3a4.42,4.42,0,1,0-.27-2l-10.88,3a2.24,2.24,0,0,0-.75-.68,2.32,2.32,0,0,0-1-.27L31,70.48a5.93,5.93,0,0,0,.56-.29,7.33,7.33,0,0,0,3.33-7.92l6-3.48a13.46,13.46,0,0,0,14.92,3.68L66.19,78.06a3.43,3.43,0,1,0,5.61,3.8H82.16a4.05,4.05,0,1,0,6-4.11ZM15.59,54.37h-.08a3.73,3.73,0,0,1-.08-7.46h.08a3.73,3.73,0,0,1,.08,7.46ZM29.15,38A2.4,2.4,0,0,1,27,39.21a2.32,2.32,0,0,1-1.15-.3,2.39,2.39,0,0,1,1.16-4.49,2.28,2.28,0,0,1,1.14.29A2.4,2.4,0,0,1,29.15,38Zm-8.23,46.2a2.09,2.09,0,0,1-1.46.6,2.05,2.05,0,0,1-2.05-2.05,2,2,0,0,1,2.05-2.06h0a2.06,2.06,0,0,1,1.46,3.51ZM51,74.52a2.4,2.4,0,1,1-2.39,2.4A2.4,2.4,0,0,1,51,74.52ZM32.92,65.2a5.33,5.33,0,0,1-9.73,1.49,5.33,5.33,0,0,1,4.55-8.09,5.33,5.33,0,0,1,5.18,6.6Zm37.19-5.05a5.34,5.34,0,0,1,4.69-2.77,5.34,5.34,0,0,1,4.66,7.89A5.35,5.35,0,0,1,74.77,68a5.27,5.27,0,0,1-2.54-.65A5.33,5.33,0,0,1,70.11,60.15Zm4.08-43.34a2.06,2.06,0,0,1,2-1.57,2,2,0,0,1,2,2.54,2,2,0,0,1-.92,1.27,2,2,0,0,1-1.07.3,2.06,2.06,0,0,1-2-2.54ZM74.47,21a4.12,4.12,0,0,0,1.72.39,4.58,4.58,0,0,0,.83-.09l7.72,26a2.19,2.19,0,0,0-.5.7l-19.69.5A13.5,13.5,0,0,0,63.32,44l7.87-5.11A4.41,4.41,0,1,0,70,37.26l-7.69,5a13.41,13.41,0,0,0-2.26-2.6ZM71.76,35a2.36,2.36,0,0,1,1.08-1.48,2.42,2.42,0,0,1,1.23-.34,2.39,2.39,0,0,1,1.25,4.44,2.42,2.42,0,0,1-1.23.34A2.39,2.39,0,0,1,72,36.83,2.34,2.34,0,0,1,71.76,35ZM70.08,80.76a1.42,1.42,0,0,1-.67.88,1.45,1.45,0,0,1-2-.53A1.43,1.43,0,0,1,67.3,80a1.4,1.4,0,0,1,.68-.88,1.45,1.45,0,0,1,.71-.19,1.47,1.47,0,0,1,1.25.72A1.43,1.43,0,0,1,70.08,80.76Zm12.53-1.39a3,3,0,0,0-.21.49H72.08a3.2,3.2,0,0,0-.41-1.18,3.42,3.42,0,0,0-3-1.73,4.15,4.15,0,0,0-.78.09L57.65,61.62a13.69,13.69,0,0,0,4.59-4.2l5.69,2.68L68,60a7.33,7.33,0,0,0,3.27,9.18,7.24,7.24,0,0,0,3.5.9A7.34,7.34,0,0,0,79,68.69l5.46,9A3.92,3.92,0,0,0,82.61,79.37ZM88,82.3a2.05,2.05,0,0,1-1.81,1.07,2.05,2.05,0,0,1-2-1.48,2.06,2.06,0,0,1,2-2.63,2,2,0,0,1,1,.25,2,2,0,0,1,1,1.22A2.09,2.09,0,0,1,88,82.3Z"></path><path d="M12.23,33.45a4.07,4.07,0,0,0,5.5-1.62,4,4,0,0,0,.36-3L32,21.11a2.29,2.29,0,0,0,2.28,0,2.34,2.34,0,0,0,.71-.65l8.51,1.67c0,.15,0,.31,0,.46a7.35,7.35,0,1,0,.42-2.42l-8.57-1.69a2,2,0,0,0-.21-.5,2.29,2.29,0,0,0-4.25,1.46L17.11,27.12a3.92,3.92,0,0,0-1-.79,4,4,0,0,0-1.93-.5,4.06,4.06,0,0,0-1.95,7.62ZM50.81,17.28a5.33,5.33,0,1,1-5.33,5.32A5.33,5.33,0,0,1,50.81,17.28ZM12.37,28.9a2.05,2.05,0,0,1,1.81-1.07,2.13,2.13,0,0,1,1,.25,2.06,2.06,0,0,1-1,3.86,2,2,0,0,1-1-.25A2,2,0,0,1,12.37,28.9Z"></path></g>
</svg>
</g></svg></svg>